<svg width="301" height="300" viewBox="0 0 301 300" fill="none" xmlns="http://www.w3.org/2000/svg">
<g clip-path="url(#clip0_107_2741)">
<path d="M150.5 269C216.774 269 270.5 215.274 270.5 149C270.5 82.7258 216.774 29 150.5 29C84.2258 29 30.5 82.7258 30.5 149C30.5 215.274 84.2258 269 150.5 269Z" fill="#0F172A"/>
<g filter="url(#filter0_d_107_2741)">
<rect x="89.5" y="63.5564" width="124.537" height="155.029" rx="16" fill="#E2E8F0"/>
</g>
<rect x="100.5" y="83.5564" width="50" height="9.8" rx="4.9" fill="#4B5563"/>
<rect x="100.5" y="111.356" width="100" height="9.8" rx="4.9" fill="#475569"/>
<rect x="100.5" y="139.156" width="100" height="9.8" rx="4.9" fill="#475569"/>
<rect x="100.5" y="166.956" width="100" height="9.8" rx="4.9" fill="#475569"/>
<rect x="100.5" y="194.756" width="100" height="9.8" rx="4.9" fill="#475569"/>
<g filter="url(#filter1_d_107_2741)">
<path d="M288.65 46.4241H228.569C225.77 46.4241 223.5 48.8126 223.5 51.759V81.4781C223.5 84.4245 225.77 86.813 228.569 86.813H288.65C291.449 86.813 293.719 84.4245 293.719 81.4781V51.759C293.719 48.8126 291.449 46.4241 288.65 46.4241Z" fill="#F9FAFB"/>
</g>
<path d="M238.5 73C241.814 73 244.5 70.3137 244.5 67C244.5 63.6863 241.814 61 238.5 61C235.186 61 232.5 63.6863 232.5 67C232.5 70.3137 235.186 73 238.5 73Z" fill="#9CA3AF"/>
<rect x="252.5" y="61" width="32" height="12" rx="6" fill="#475569"/>
<path fill-rule="evenodd" clip-rule="evenodd" d="M185.61 225.563C198.49 225.563 210.459 221.667 220.405 214.989L261.105 253.841L275.865 236.715L236.592 199.226C243.845 189.018 248.11 176.539 248.11 163.063C248.11 128.545 220.127 100.563 185.61 100.563C151.092 100.563 123.11 128.545 123.11 163.063C123.11 197.581 151.092 225.563 185.61 225.563ZM238.919 163.063C238.919 192.286 215.229 215.977 186.005 215.977C156.782 215.977 133.092 192.286 133.092 163.063C133.092 133.84 156.782 110.15 186.005 110.15C215.229 110.15 238.919 133.84 238.919 163.063Z" fill="#9CA3AF"/>
<g filter="url(#filter2_b_107_2741)">
<path d="M186 217C216.1 217 240.5 192.823 240.5 163C240.5 133.177 216.1 109 186 109C155.9 109 131.5 133.177 131.5 163C131.5 192.823 155.9 217 186 217Z" fill="#F9FAFB"/>
</g>
<path d="M195.423 163L208.612 149.862C209.848 148.562 210.525 146.835 210.499 145.047C210.474 143.259 209.748 141.552 208.476 140.287C207.204 139.023 205.486 138.301 203.687 138.276C201.888 138.251 200.15 138.923 198.842 140.151L185.624 153.289L172.435 140.151C171.8 139.484 171.037 138.95 170.191 138.58C169.345 138.211 168.433 138.014 167.509 138.001C166.585 137.988 165.668 138.159 164.812 138.504C163.956 138.85 163.178 139.362 162.524 140.012C161.871 140.661 161.355 141.434 161.008 142.285C160.66 143.136 160.488 144.048 160.501 144.967C160.514 145.885 160.712 146.791 161.084 147.632C161.455 148.473 161.993 149.231 162.665 149.862L175.876 163L162.665 176.138C161.993 176.769 161.455 177.527 161.084 178.368C160.712 179.209 160.514 180.115 160.501 181.033C160.488 181.952 160.66 182.863 161.008 183.715C161.355 184.566 161.871 185.339 162.524 185.988C163.178 186.637 163.956 187.15 164.812 187.496C165.668 187.841 166.585 188.012 167.509 187.999C168.433 187.986 169.345 187.789 170.191 187.42C171.037 187.05 171.8 186.516 172.435 185.849L185.653 172.711L198.872 185.849C200.192 187.004 201.905 187.616 203.664 187.559C205.422 187.503 207.092 186.782 208.334 185.544C209.576 184.305 210.296 182.643 210.348 180.896C210.4 179.148 209.779 177.446 208.612 176.138L195.423 163Z" fill="#4B5563"/>
<path d="M261.102 253.843L275.862 236.717L278.085 238.84C280.242 240.899 281.533 243.775 281.675 246.836C281.817 249.898 280.797 252.893 278.841 255.163C276.884 257.433 274.151 258.792 271.242 258.941C268.333 259.09 265.487 258.017 263.33 255.958L261.107 253.836L261.102 253.843Z" fill="#D1D5DB"/>
<path fill-rule="evenodd" clip-rule="evenodd" d="M56.8144 91.1717C56.7956 89.7456 56.6167 88.3073 56.2589 86.8592C55.0042 81.7771 49.4064 78.5144 43.4484 77.7473C37.4927 76.9802 31.2993 78.7258 28.9123 83.1465C27.547 85.674 27.3587 87.8525 27.9166 89.6891C28.4721 91.5159 29.7903 93.0304 31.5793 94.2106C36.5675 97.4978 45.3034 98.169 49.2887 96.7946C51.1319 96.1578 52.9327 95.3908 54.6864 94.513C53.6836 100.259 49.9477 105.702 44.9619 110.607C34.1264 121.268 17.3117 129.36 8.15456 132.335C7.66257 132.495 7.38948 133.04 7.54249 133.554C7.69551 134.068 8.21809 134.356 8.71008 134.196C18.0485 131.162 35.1905 122.898 46.2402 112.026C51.9487 106.411 56.0164 100.089 56.7109 93.4435C69.6156 86.242 80.2134 73.1767 89.274 62.1815C89.6106 61.7758 89.5659 61.1587 89.1751 60.8071C88.7844 60.4579 88.1958 60.5022 87.8592 60.9103C79.1681 71.4556 69.0812 83.9997 56.8144 91.1717ZM54.9383 92.2166C55.009 90.6136 54.8582 88.9859 54.451 87.3435C53.3658 82.9449 48.3776 80.3437 43.22 79.6798C40.0585 79.2742 36.8077 79.6086 34.2583 80.7985C32.6552 81.546 31.3345 82.6302 30.5389 84.1055C29.4937 86.0404 29.2677 87.6951 29.6961 89.099C30.1245 90.5128 31.1887 91.6486 32.5752 92.5608C37.1208 95.5579 45.075 96.1948 48.7025 94.9433C50.8423 94.2057 52.9186 93.2861 54.9383 92.2166Z" fill="#4B5563"/>
<circle cx="285.5" cy="184" r="6" fill="#F3F4F6"/>
<path fill-rule="evenodd" clip-rule="evenodd" d="M58.8845 225.394C59.9553 224.993 61.082 224.459 61.951 223.686C62.983 222.769 63.4027 221.587 63.6845 220.343C64.0464 218.744 64.1909 217.042 64.6297 215.441C64.7922 214.846 65.1048 214.621 65.239 214.522C65.5781 214.27 65.9208 214.202 66.2433 214.228C66.6254 214.257 67.1504 214.409 67.4956 215.083C67.5448 215.18 67.6088 215.327 67.6519 215.528C67.6833 215.676 67.7036 216.137 67.7368 216.328C67.8199 216.797 67.8894 217.266 67.9546 217.737C68.1719 219.306 68.2968 220.639 68.983 222.081C69.914 224.038 70.847 225.235 72.1122 225.766C73.3356 226.279 74.7984 226.182 76.6673 225.78C76.8451 225.735 77.0211 225.696 77.1953 225.664C78.0193 225.513 78.807 226.082 78.9688 226.946C79.1307 227.809 78.607 228.65 77.7904 228.84C77.6199 228.88 77.4519 228.917 77.2857 228.952C74.7602 229.61 71.8365 231.958 70.1374 234.014C69.6137 234.648 68.847 236.421 68.0648 237.551C67.4876 238.386 66.839 238.935 66.2943 239.13C65.9294 239.261 65.6217 239.24 65.3676 239.174C64.9984 239.079 64.6919 238.868 64.4568 238.533C64.3288 238.35 64.21 238.104 64.1534 237.791C64.1263 237.64 64.1233 237.257 64.1239 237.083C63.9645 236.506 63.7694 235.943 63.6273 235.36C63.2882 233.971 62.623 233.092 61.8328 231.93C61.0937 230.843 60.2999 230.159 59.1362 229.614C58.9848 229.575 57.7633 229.26 57.3319 229.08C56.7017 228.815 56.4014 228.371 56.2925 228.132C56.1073 227.727 56.0882 227.373 56.1251 227.077C56.1799 226.641 56.3657 226.268 56.6956 225.967C56.8999 225.78 57.2051 225.598 57.6137 225.509C57.9294 225.44 58.7669 225.4 58.8845 225.394ZM66.0506 223.13C66.1073 223.263 66.1676 223.396 66.2316 223.531C67.5953 226.397 69.1202 227.998 70.9737 228.774L71.0359 228.799C69.7959 229.768 68.6734 230.851 67.8156 231.889C67.4623 232.317 66.9947 233.205 66.4894 234.115C66.0303 232.545 65.2796 231.435 64.3356 230.045C63.6143 228.985 62.8587 228.187 61.93 227.537C62.6507 227.148 63.338 226.692 63.9368 226.16C64.9337 225.273 65.5928 224.246 66.0506 223.13Z" fill="#9CA3AF"/>
</g>
<defs>
<filter id="filter0_d_107_2741" x="59.5" y="53.5564" width="184.537" height="215.029" filterUnits="userSpaceOnUse" color-interpolation-filters="sRGB">
<feFlood flood-opacity="0" result="BackgroundImageFix"/>
<feColorMatrix in="SourceAlpha" type="matrix" values="0 0 0 0 0 0 0 0 0 0 0 0 0 0 0 0 0 0 127 0" result="hardAlpha"/>
<feOffset dy="20"/>
<feGaussianBlur stdDeviation="15"/>
<feComposite in2="hardAlpha" operator="out"/>
<feColorMatrix type="matrix" values="0 0 0 0 0.570833 0 0 0 0 0.570833 0 0 0 0 0.570833 0 0 0 0.19 0"/>
<feBlend mode="normal" in2="BackgroundImageFix" result="effect1_dropShadow_107_2741"/>
<feBlend mode="normal" in="SourceGraphic" in2="effect1_dropShadow_107_2741" result="shape"/>
</filter>
<filter id="filter1_d_107_2741" x="216.5" y="37.4241" width="96.219" height="66.3889" filterUnits="userSpaceOnUse" color-interpolation-filters="sRGB">
<feFlood flood-opacity="0" result="BackgroundImageFix"/>
<feColorMatrix in="SourceAlpha" type="matrix" values="0 0 0 0 0 0 0 0 0 0 0 0 0 0 0 0 0 0 127 0" result="hardAlpha"/>
<feOffset dx="6" dy="4"/>
<feGaussianBlur stdDeviation="6.5"/>
<feComposite in2="hardAlpha" operator="out"/>
<feColorMatrix type="matrix" values="0 0 0 0 0.104618 0 0 0 0 0.465612 0 0 0 0 0.545833 0 0 0 0.09 0"/>
<feBlend mode="normal" in2="BackgroundImageFix" result="effect1_dropShadow_107_2741"/>
<feBlend mode="normal" in="SourceGraphic" in2="effect1_dropShadow_107_2741" result="shape"/>
</filter>
<filter id="filter2_b_107_2741" x="123.5" y="101" width="125" height="124" filterUnits="userSpaceOnUse" color-interpolation-filters="sRGB">
<feFlood flood-opacity="0" result="BackgroundImageFix"/>
<feGaussianBlur in="BackgroundImageFix" stdDeviation="4"/>
<feComposite in2="SourceAlpha" operator="in" result="effect1_backgroundBlur_107_2741"/>
<feBlend mode="normal" in="SourceGraphic" in2="effect1_backgroundBlur_107_2741" result="shape"/>
</filter>
<clipPath id="clip0_107_2741">
<rect width="300" height="300" fill="white" transform="translate(0.5)"/>
</clipPath>
</defs>
</svg>
